<svg xmlns="http://www.w3.org/2000/svg" width="53" height="60" fill="none" viewBox="0 0 53 60">
  <path fill="url(#a)" d="M52.663 43.69V16.31a2.619 2.619 0 0 0-1.31-2.269L27.642.351a2.62 2.62 0 0 0-2.619 0L1.31 14.04A2.62 2.62 0 0 0 0 16.31v27.38a2.62 2.62 0 0 0 1.31 2.269l23.712 13.69a2.619 2.619 0 0 0 2.62 0l23.712-13.69a2.619 2.619 0 0 0 1.31-2.269Z"/>
  <path fill="#451F9F" d="m26.156 30.639-.242 14.826-7.588 3.871a.84.84 0 0 1-1.219-.746V24.624a.838.838 0 0 1 .433-.733l20.798-11.486a.839.839 0 0 1 1.243.734v9.157l-13.01 7.633a.837.837 0 0 0-.415.71Z"/>
  <path fill="#451F9F" d="M47.553 42.822 29.774 53.244a.838.838 0 0 1-1.262-.723V31.99a.839.839 0 0 1 .414-.723l17.78-10.422a.837.837 0 0 1 1.261.723v20.53a.84.84 0 0 1-.414.724ZM14.37 23.038l-.242 14.826-7.588 3.872a.838.838 0 0 1-1.22-.747V17.024a.838.838 0 0 1 .434-.734L26.55 4.805a.838.838 0 0 1 1.244.733v9.157l-13.011 7.633a.838.838 0 0 0-.414.71Z"/>
  <defs>
    <linearGradient id="a" x1="-29.902" x2="56.324" y1="-99.913" y2="-102.745" gradientUnits="userSpaceOnUse">
      <stop stop-color="#EC74E7"/>
      <stop offset=".756" stop-color="#8468F5"/>
    </linearGradient>
  </defs>
</svg>
